<svg version="1.1" viewBox="0.0 0.0 960.0 720.0" fill="none" stroke="none" stroke-linecap="square" stroke-miterlimit="10" xmlns:xlink="http://www.w3.org/1999/xlink" xmlns="http://www.w3.org/2000/svg"><clipPath id="p.0"><path d="m0 0l960.0 0l0 720.0l-960.0 0l0 -720.0z" clip-rule="nonzero"/></clipPath><g clip-path="url(#p.0)"><path fill="#000000" fill-opacity="0.0" d="m0 0l960.0 0l0 720.0l-960.0 0z" fill-rule="evenodd"/><path fill="#43533d" d="m368.0 249.30708l224.0 0l0 221.38582l-224.0 0z" fill-rule="evenodd"/><path stroke="#ffffff" stroke-width="1.0" stroke-linejoin="round" stroke-linecap="butt" d="m368.0 249.30708l224.0 0l0 221.38582l-224.0 0z" fill-rule="evenodd"/><path fill="#ffc64f" d="m411.91617 418.3071q-0.65625 0 -0.65625 -0.828125l0.328125 -114.328125q0 -0.84375 0.671875 -0.84375l18.65625 0q0.671875 0 0.671875 0.84375l0 39.5l26.15625 -39.671875q0.5 -0.671875 1.171875 -0.671875l19.171875 0q0.65625 0 0.328125 0.671875l-28.828125 46.0l32.328125 68.65625q0.328125 0.671875 -0.828125 0.671875l-20.34375 0q-0.828125 0 -1.0 -0.671875l-22.484375 -48.984375l-5.84375 9.15625l0 39.671875q0 0.828125 -0.65625 0.828125l-18.84375 0z" fill-rule="nonzero"/><path fill="#ffffff" d="m521.21857 419.97897q-9.984375 0 -18.1875 -5.0625q-8.203125 -5.078125 -13.078125 -13.4375q-4.875 -8.375 -4.875 -18.46875l0 -7.671875q0 -4.296875 4.3125 -4.296875l18.65625 0q4.140625 0 4.140625 4.296875l0 7.671875q0 4.125 2.671875 7.0q2.6875 2.859375 6.359375 2.859375q3.640625 0 6.328125 -2.9375q2.703125 -2.9375 2.703125 -6.921875q0 -4.140625 -6.234375 -7.640625q-2.65625 -1.5 -8.328125 -4.65625q-5.671875 -3.171875 -10.703125 -6.015625q-10.015625 -5.84375 -14.875 -14.734375q-4.859375 -8.890625 -4.859375 -19.953125q0 -10.296875 4.96875 -18.5q4.984375 -8.21875 13.1875 -13.0q8.203125 -4.796875 17.8125 -4.796875q9.78125 0 17.984375 4.890625q8.203125 4.875 13.09375 13.078125q4.890625 8.203125 4.890625 18.328125l0 13.671875q0 4.125 -4.140625 4.125l-18.671875 0q-4.125 0 -4.125 -4.109375l-0.171875 -13.671875q0 -4.40625 -2.65625 -7.0625q-2.640625 -2.65625 -6.203125 -2.65625q-3.671875 0 -6.359375 2.875q-2.671875 2.875 -2.671875 6.828125q0 4.484375 1.8125 7.34375q1.828125 2.859375 7.265625 5.8125q0.8125 0.484375 3.203125 1.71875q2.390625 1.234375 5.21875 2.828125q2.828125 1.578125 5.125 2.78125q2.3125 1.1875 2.859375 1.546875q8.921875 4.984375 14.296875 12.5q5.375 7.515625 5.375 18.46875q0 10.4375 -4.875 18.8125q-4.875 8.359375 -13.09375 13.265625q-8.203125 4.890625 -18.15625 4.890625z" fill-rule="nonzero"/><path fill="#000000" fill-opacity="0.0" d="m485.95016 384.99567c3.197235 0 6.776886 -3.4906921 9.436829 -1.7167053c1.064148 0.7097168 0.69247437 2.664856 1.7156982 3.4324036c2.0622864 1.5469971 5.416809 0.7243347 7.7221375 -0.4296875" fill-rule="evenodd"/><path stroke="#000000" stroke-width="1.0" stroke-linejoin="round" stroke-linecap="butt" d="m485.95016 384.99567c3.197235 0 6.776886 -3.4906921 9.436829 -1.7167053c1.064148 0.7097168 0.69247437 2.664856 1.7156982 3.4324036c2.0622864 1.5469971 5.416809 0.7243347 7.7221375 -0.4296875" fill-rule="evenodd"/><path fill="#000000" fill-opacity="0.0" d="m488.88583 397.49115c3.03302 -1.0112915 5.3247375 -5.4549255 8.409149 -4.6134033c1.2339783 0.33666992 1.4998169 2.3089294 2.7132568 2.71344c2.4456787 0.8152466 5.3677063 -1.0262146 7.1896057 -2.8501282" fill-rule="evenodd"/><path stroke="#000000" stroke-width="1.0" stroke-linejoin="round" stroke-linecap="butt" d="m488.88583 397.49115c3.03302 -1.0112915 5.3247375 -5.4549255 8.409149 -4.6134033c1.2339783 0.33666992 1.4998169 2.3089294 2.7132568 2.71344c2.4456787 0.8152466 5.3677063 -1.0262146 7.1896057 -2.8501282" fill-rule="evenodd"/><path fill="#000000" fill-opacity="0.0" d="m493.60092 409.29987c2.7138062 -1.6916199 4.031555 -6.348114 7.1637573 -6.351532c1.2530823 -0.001373291 1.9013367 1.7425842 3.1481934 1.8086548c2.5130005 0.13317871 4.9548035 -2.2927246 6.3427124 -4.42572" fill-rule="evenodd"/><path stroke="#000000" stroke-width="1.0" stroke-linejoin="round" stroke-linecap="butt" d="m493.60092 409.29987c2.7138062 -1.6916199 4.031555 -6.348114 7.1637573 -6.351532c1.2530823 -0.001373291 1.9013367 1.7425842 3.1481934 1.8086548c2.5130005 0.13317871 4.9548035 -2.2927246 6.3427124 -4.42572" fill-rule="evenodd"/><path fill="#000000" fill-opacity="0.0" d="m523.8715 419.24832c0.3217163 -3.1813354 -2.7913208 -7.0944214 -0.7585449 -9.562622c0.81329346 -0.98742676 2.7212524 -0.42086792 3.5879517 -1.3617554c1.7468262 -1.8963318 1.2658081 -5.3169556 0.34954834 -7.7269287" fill-rule="evenodd"/><path stroke="#000000" stroke-width="1.0" stroke-linejoin="round" stroke-linecap="butt" d="m523.8715 419.24832c0.3217163 -3.1813354 -2.7913208 -7.0944214 -0.7585449 -9.562622c0.81329346 -0.98742676 2.7212524 -0.42086792 3.5879517 -1.3617554c1.7468262 -1.8963318 1.2658081 -5.3169556 0.34954834 -7.7269287" fill-rule="evenodd"/><path fill="#000000" fill-opacity="0.0" d="m507.44412 417.3411c1.9128113 -2.5621338 1.2571106 -7.519104 4.2700806 -8.589386c1.2053528 -0.42816162 2.5497742 1.0393677 3.777008 0.6786194c2.4735718 -0.7271118 3.821228 -3.9075012 4.275635 -6.4453125" fill-rule="evenodd"/><path stroke="#000000" stroke-width="1.0" stroke-linejoin="round" stroke-linecap="butt" d="m507.44412 417.3411c1.9128113 -2.5621338 1.2571106 -7.519104 4.2700806 -8.589386c1.2053528 -0.42816162 2.5497742 1.0393677 3.777008 0.6786194c2.4735718 -0.7271118 3.821228 -3.9075012 4.275635 -6.4453125" fill-rule="evenodd"/><path fill="#000000" fill-opacity="0.0" d="m544.0216 407.3935c-2.7372437 -1.6513977 -7.6049194 -0.5118408 -8.965881 -3.40448c-0.5444946 -1.1572571 0.78356934 -2.6391296 0.3040161 -3.824768c-0.96655273 -2.3896484 -4.2634277 -3.4179688 -6.83313 -3.620697" fill-rule="evenodd"/><path stroke="#000000" stroke-width="1.0" stroke-linejoin="round" stroke-linecap="butt" d="m544.0216 407.3935c-2.7372437 -1.6513977 -7.6049194 -0.5118408 -8.965881 -3.40448c-0.5444946 -1.1572571 0.78356934 -2.6391296 0.3040161 -3.824768c-0.96655273 -2.3896484 -4.2634277 -3.4179688 -6.83313 -3.620697" fill-rule="evenodd"/><path fill="#000000" fill-opacity="0.0" d="m531.4443 388.67755c3.1721191 0.40219116 7.1627197 -2.6107788 9.578552 -0.5161743c0.96655273 0.8379822 0.35186768 2.7309875 1.2705078 3.6212158c1.8514404 1.794281 5.283081 1.4000244 7.715454 0.54504395" fill-rule="evenodd"/><path stroke="#000000" stroke-width="1.0" stroke-linejoin="round" stroke-linecap="butt" d="m531.4443 388.67755c3.1721191 0.40219116 7.1627197 -2.6107788 9.578552 -0.5161743c0.96655273 0.8379822 0.35186768 2.7309875 1.2705078 3.6212158c1.8514404 1.794281 5.283081 1.4000244 7.715454 0.54504395" fill-rule="evenodd"/><path fill="#000000" fill-opacity="0.0" d="m550.225 337.7359c-3.1972046 0 -6.7768555 3.4906616 -9.436829 1.7166748c-1.064148 -0.7096863 -0.69244385 -2.6648254 -1.7156982 -3.432373c-2.0622559 -1.5470276 -5.416809 -0.7243347 -7.722107 0.42965698" fill-rule="evenodd"/><path stroke="#000000" stroke-width="1.0" stroke-linejoin="round" stroke-linecap="butt" d="m550.225 337.7359c-3.1972046 0 -6.7768555 3.4906616 -9.436829 1.7166748c-1.064148 -0.7096863 -0.69244385 -2.6648254 -1.7156982 -3.432373c-2.0622559 -1.5470276 -5.416809 -0.7243347 -7.722107 0.42965698" fill-rule="evenodd"/><path fill="#000000" fill-opacity="0.0" d="m547.2893 325.2404c-3.03302 1.0112915 -5.324707 5.4549255 -8.409119 4.6134033c-1.2340088 -0.33666992 -1.4998169 -2.3089294 -2.7132568 -2.71344c-2.4456787 -0.8152466 -5.367737 1.0262146 -7.189636 2.8501282" fill-rule="evenodd"/><path stroke="#000000" stroke-width="1.0" stroke-linejoin="round" stroke-linecap="butt" d="m547.2893 325.2404c-3.03302 1.0112915 -5.324707 5.4549255 -8.409119 4.6134033c-1.2340088 -0.33666992 -1.4998169 -2.3089294 -2.7132568 -2.71344c-2.4456787 -0.8152466 -5.367737 1.0262146 -7.189636 2.8501282" fill-rule="evenodd"/><path fill="#000000" fill-opacity="0.0" d="m542.5742 313.4317c-2.7138062 1.6916199 -4.031555 6.348114 -7.1637573 6.3515015c-1.2530518 0.001373291 -1.9013062 -1.7425842 -3.1481323 -1.8086548c-2.5130615 -0.13317871 -4.954834 2.2927551 -6.3427734 4.4257507" fill-rule="evenodd"/><path stroke="#000000" stroke-width="1.0" stroke-linejoin="round" stroke-linecap="butt" d="m542.5742 313.4317c-2.7138062 1.6916199 -4.031555 6.348114 -7.1637573 6.3515015c-1.2530518 0.001373291 -1.9013062 -1.7425842 -3.1481323 -1.8086548c-2.5130615 -0.13317871 -4.954834 2.2927551 -6.3427734 4.4257507" fill-rule="evenodd"/><path fill="#000000" fill-opacity="0.0" d="m512.30365 303.48325c-0.32174683 3.181305 2.7913208 7.094391 0.7584839 9.562592c-0.8132324 0.98742676 -2.721222 0.42086792 -3.5879211 1.3617554c-1.7468262 1.8963318 -1.2658081 5.3169556 -0.34954834 7.7269287" fill-rule="evenodd"/><path stroke="#000000" stroke-width="1.0" stroke-linejoin="round" stroke-linecap="butt" d="m512.30365 303.48325c-0.32174683 3.181305 2.7913208 7.094391 0.7584839 9.562592c-0.8132324 0.98742676 -2.721222 0.42086792 -3.5879211 1.3617554c-1.7468262 1.8963318 -1.2658081 5.3169556 -0.34954834 7.7269287" fill-rule="evenodd"/><path fill="#000000" fill-opacity="0.0" d="m528.731 305.39044c-1.9127808 2.5621643 -1.2570801 7.5191345 -4.2700806 8.589386c-1.2053833 0.42816162 -2.5497437 -1.0393677 -3.7770386 -0.6786194c-2.4735107 0.7271118 -3.821167 3.9075012 -4.2755737 6.4453125" fill-rule="evenodd"/><path stroke="#000000" stroke-width="1.0" stroke-linejoin="round" stroke-linecap="butt" d="m528.731 305.39044c-1.9127808 2.5621643 -1.2570801 7.5191345 -4.2700806 8.589386c-1.2053833 0.42816162 -2.5497437 -1.0393677 -3.7770386 -0.6786194c-2.4735107 0.7271118 -3.821167 3.9075012 -4.2755737 6.4453125" fill-rule="evenodd"/><path fill="#000000" fill-opacity="0.0" d="m494.53583 312.76318c1.9454956 2.5370178 6.8935547 3.253418 7.104431 6.4435425c0.0843811 1.2762756 -1.6931763 2.1710205 -1.6796265 3.4499817c0.02734375 2.5777893 2.721344 4.7390137 5.0398254 5.866089" fill-rule="evenodd"/><path stroke="#000000" stroke-width="1.0" stroke-linejoin="round" stroke-linecap="butt" d="m494.53583 312.76318c1.9454956 2.5370178 6.8935547 3.253418 7.104431 6.4435425c0.0843811 1.2762756 -1.6931763 2.1710205 -1.6796265 3.4499817c0.02734375 2.5777893 2.721344 4.7390137 5.0398254 5.866089" fill-rule="evenodd"/><path fill="#000000" fill-opacity="0.0" d="m487.07355 323.60352c2.841156 1.4670715 7.623871 0.0077209473 9.173553 2.804657c0.6199646 1.1189575 -0.6074219 2.6858215 -0.050354004 3.8374023c1.1227112 2.320984 4.48114 3.129181 7.0592346 3.1615295" fill-rule="evenodd"/><path stroke="#000000" stroke-width="1.0" stroke-linejoin="round" stroke-linecap="butt" d="m487.07355 323.60352c2.841156 1.4670715 7.623871 0.0077209473 9.173553 2.804657c0.6199646 1.1189575 -0.6074219 2.6858215 -0.050354004 3.8374023c1.1227112 2.320984 4.48114 3.129181 7.0592346 3.1615295" fill-rule="evenodd"/><path fill="#000000" fill-opacity="0.0" d="m487.102 337.0358c3.1545105 0.5236511 7.258026 -2.3341064 9.591888 -0.14816284c0.9336853 0.8745117 0.24676514 2.7426453 1.1305847 3.667511c1.7813416 1.8641052 5.2257996 1.6018677 7.6893005 0.84085083" fill-rule="evenodd"/><path stroke="#000000" stroke-width="1.0" stroke-linejoin="round" stroke-linecap="butt" d="m487.102 337.0358c3.1545105 0.5236511 7.258026 -2.3341064 9.591888 -0.14816284c0.9336853 0.8745117 0.24676514 2.7426453 1.1305847 3.667511c1.7813416 1.8641052 5.2257996 1.6018677 7.6893005 0.84085083" fill-rule="evenodd"/><path fill="#000000" fill-opacity="0.0" d="m491.20844 351.22235c3.013733 -1.0690918 5.301239 -5.334137 8.360809 -4.6643677c1.2240295 0.26794434 1.4823608 2.1106567 2.6858215 2.4431458c2.425537 0.670105 5.3314514 -1.1746521 7.1452026 -2.9598083" fill-rule="evenodd"/><path stroke="#000000" stroke-width="1.0" stroke-linejoin="round" stroke-linecap="butt" d="m491.20844 351.22235c3.013733 -1.0690918 5.301239 -5.334137 8.360809 -4.6643677c1.2240295 0.26794434 1.4823608 2.1106567 2.6858215 2.4431458c2.425537 0.670105 5.3314514 -1.1746521 7.1452026 -2.9598083" fill-rule="evenodd"/><path fill="#000000" fill-opacity="0.0" d="m509.07233 366.40125c2.6752625 -1.7510986 3.758667 -6.6324463 6.9559326 -6.6049194c1.2791138 0.011016846 2.0389404 1.8504944 3.3154907 1.9323425c2.572876 0.16494751 4.929199 -2.3606873 6.2261353 -4.5888977" fill-rule="evenodd"/><path stroke="#000000" stroke-width="1.0" stroke-linejoin="round" stroke-linecap="butt" d="m509.07233 366.40125c2.6752625 -1.7510986 3.758667 -6.6324463 6.9559326 -6.6049194c1.2791138 0.011016846 2.0389404 1.8504944 3.3154907 1.9323425c2.572876 0.16494751 4.929199 -2.3606873 6.2261353 -4.5888977" fill-rule="evenodd"/><path fill="#000000" fill-opacity="0.0" d="m497.79843 360.6913c2.7514954 -1.6287842 4.053833 -6.456421 7.2466736 -6.2848206c1.2773438 0.06866455 1.9535217 1.9405518 3.2250977 2.0798645c2.5628662 0.2807312 5.0306396 -2.1361694 6.426697 -4.303711" fill-rule="evenodd"/><path stroke="#000000" stroke-width="1.0" stroke-linejoin="round" stroke-linecap="butt" d="m497.79843 360.6913c2.7514954 -1.6287842 4.053833 -6.456421 7.2466736 -6.2848206c1.2773438 0.06866455 1.9535217 1.9405518 3.2250977 2.0798645c2.5628662 0.2807312 5.0306396 -2.1361694 6.426697 -4.303711" fill-rule="evenodd"/><path fill="#000000" fill-opacity="0.0" d="m522.35834 374.00732c2.3484497 -2.170044 2.6086426 -7.163666 5.7665405 -7.6659546c1.2633667 -0.20095825 2.3173218 1.4874268 3.5899048 1.3567505c2.5648193 -0.26339722 4.470459 -3.1444702 5.380554 -5.556793" fill-rule="evenodd"/><path stroke="#000000" stroke-width="1.0" stroke-linejoin="round" stroke-linecap="butt" d="m522.35834 374.00732c2.3484497 -2.170044 2.6086426 -7.163666 5.7665405 -7.6659546c1.2633667 -0.20095825 2.3173218 1.4874268 3.5899048 1.3567505c2.5648193 -0.26339722 4.470459 -3.1444702 5.380554 -5.556793" fill-rule="evenodd"/><path fill="#000000" fill-opacity="0.0" d="m527.10876 377.19516c3.0020142 -1.0992737 5.162903 -5.6075745 8.270386 -4.856415c1.2431641 0.3005066 1.5664062 2.264038 2.7910767 2.6329346c2.4682007 0.74349976 5.335083 -1.1822815 7.1029053 -3.0584412" fill-rule="evenodd"/><path stroke="#000000" stroke-width="1.0" stroke-linejoin="round" stroke-linecap="butt" d="m527.10876 377.19516c3.0020142 -1.0992737 5.162903 -5.6075745 8.270386 -4.856415c1.2431641 0.3005066 1.5664062 2.264038 2.7910767 2.6329346c2.4682007 0.74349976 5.335083 -1.1822815 7.1029053 -3.0584412" fill-rule="evenodd"/><path fill="#000000" fill-opacity="0.0" d="m531.4 380.28687c3.1846924 0.28988647 7.0457153 -2.6264954 9.545105 -0.7382202c0.9998779 0.7554016 0.46417236 2.5369568 1.418396 3.3423767c1.9232178 1.6233215 5.3342285 1.1636658 7.7281494 0.301239" fill-rule="evenodd"/><path stroke="#000000" stroke-width="1.0" stroke-linejoin="round" stroke-linecap="butt" d="m531.4 380.28687c3.1846924 0.28988647 7.0457153 -2.6264954 9.545105 -0.7382202c0.9998779 0.7554016 0.46417236 2.5369568 1.418396 3.3423767c1.9232178 1.6233215 5.3342285 1.1636658 7.7281494 0.301239" fill-rule="evenodd"/><path fill="#000000" fill-opacity="0.0" d="m369.5013 251.0l222.48819 0l0 219.68503l-222.48819 0z" fill-rule="evenodd"/><path stroke="#ffc64f" stroke-width="12.0" stroke-linejoin="round" stroke-linecap="butt" d="m369.5013 251.0l222.48819 0l0 219.68503l-222.48819 0z" fill-rule="evenodd"/></g></svg>